<svg width="44" height="24" viewBox="0 0 44 24" fill="none" xmlns="http://www.w3.org/2000/svg">
<path d="M5 19V6.05C5 5.78167 5.105 5.53958 5.315 5.32375C5.525 5.10792 5.77 5 6.05 5H17.95C18.2183 5 18.4604 5.10792 18.6763 5.32375C18.8921 5.53958 19 5.78167 19 6.05V15.15C19 15.4183 18.8921 15.6604 18.6763 15.8763C18.4604 16.0921 18.2183 16.2 17.95 16.2H7.8L5 19ZM6.05 16.4625L7.3625 15.15H17.95V6.05H6.05V16.4625Z" fill="#9D9DB5"/>
<path d="M24.6776 15V14.4247L26.8381 12.0597C27.0916 11.7827 27.3004 11.5419 27.4645 11.3374C27.6286 11.1307 27.75 10.9368 27.8288 10.7557C27.9098 10.5724 27.9503 10.3807 27.9503 10.1804C27.9503 9.95028 27.8949 9.75107 27.7841 9.58274C27.6754 9.41442 27.5263 9.28445 27.3366 9.19283C27.147 9.10121 26.9339 9.0554 26.6974 9.0554C26.446 9.0554 26.2266 9.1076 26.0391 9.212C25.8537 9.31428 25.7099 9.4581 25.6076 9.64347C25.5075 9.82884 25.4574 10.0462 25.4574 10.2955H24.7031C24.7031 9.91193 24.7915 9.57528 24.9684 9.28551C25.1452 8.99574 25.386 8.76989 25.6907 8.60795C25.9975 8.44602 26.3416 8.36506 26.723 8.36506C27.1065 8.36506 27.4464 8.44602 27.7425 8.60795C28.0387 8.76989 28.271 8.98828 28.4393 9.26314C28.6076 9.538 28.6918 9.84375 28.6918 10.1804C28.6918 10.4212 28.6481 10.6566 28.5607 10.8867C28.4755 11.1147 28.3263 11.3693 28.1133 11.6506C27.9023 11.9297 27.6094 12.2706 27.2344 12.6733L25.7642 14.2457V14.2969H28.8068V15H24.6776ZM30.9946 14.1051L30.9434 14.4503C30.9072 14.6932 30.8518 14.9531 30.7772 15.2301C30.7048 15.5071 30.6291 15.7681 30.5503 16.0131C30.4715 16.2582 30.4065 16.4531 30.3554 16.598H29.7801C29.8078 16.4616 29.844 16.2816 29.8887 16.0579C29.9335 15.8342 29.9782 15.5838 30.023 15.3068C30.0698 15.032 30.1082 14.7507 30.138 14.4631L30.1764 14.1051H30.9946ZM34.0229 15.0895C33.6479 15.0895 33.3101 15.0149 33.0097 14.8658C32.7093 14.7166 32.4685 14.5121 32.2874 14.2521C32.1063 13.9922 32.0072 13.696 31.9902 13.3636H32.7572C32.7871 13.6598 32.9213 13.9048 33.1599 14.0987C33.4007 14.2905 33.6883 14.3864 34.0229 14.3864C34.2913 14.3864 34.53 14.3235 34.7388 14.1978C34.9497 14.0721 35.1148 13.8995 35.2341 13.68C35.3556 13.4585 35.4163 13.2081 35.4163 12.929C35.4163 12.6435 35.3535 12.3888 35.2278 12.1651C35.1042 11.9393 34.9337 11.7614 34.7164 11.6314C34.4991 11.5014 34.2508 11.4354 33.9717 11.4332C33.7714 11.4311 33.5658 11.462 33.3549 11.5259C33.1439 11.5877 32.9703 11.6676 32.8339 11.7656L32.0925 11.6761L32.4888 8.45455H35.8893V9.15767H33.1535L32.9234 11.0881H32.9618C33.096 10.9815 33.2643 10.8931 33.4667 10.8228C33.6692 10.7525 33.8801 10.7173 34.0996 10.7173C34.5001 10.7173 34.857 10.8132 35.1702 11.005C35.4856 11.1946 35.7327 11.4545 35.9117 11.7848C36.0928 12.1151 36.1834 12.4922 36.1834 12.9162C36.1834 13.3338 36.0896 13.7067 35.9021 14.0348C35.7167 14.3608 35.4611 14.6186 35.1351 14.8082C34.8091 14.9957 34.4383 15.0895 34.0229 15.0895ZM40.1601 13.2102L40.1474 12.277H40.3008L42.4485 10.0909H43.3817L41.0934 12.4048H41.0295L40.1601 13.2102ZM39.457 15V8.45455H40.2113V15H39.457ZM42.5763 15L40.6587 12.571L41.1957 12.0469L43.5351 15H42.5763Z" fill="#9D9DB5"/>
</svg>
